<svg width="15" height="15" viewBox="0 0 15 15" fill="none" xmlns="http://www.w3.org/2000/svg">
<path d="M7.50005 0C3.35793 0 0 3.35793 0 7.50005C0 11.215 2.70391 14.2917 6.24919 14.8874V9.06476H4.43996V6.96941H6.24919V5.42438C6.24919 3.6317 7.3441 2.6548 8.94353 2.6548C9.70956 2.6548 10.3679 2.71188 10.559 2.73702V4.61084L9.44965 4.61138C8.58002 4.61138 8.41235 5.02454 8.41235 5.63105V6.96833H10.4874L10.2168 9.06368H8.41235V14.9376C12.1231 14.4859 15 11.3309 15 7.4979C15 3.35793 11.6421 0 7.50005 0Z" fill="#010002"/>
</svg>
