<svg width="26" height="34" viewBox="0 0 26 34" fill="none" xmlns="http://www.w3.org/2000/svg">
<rect opacity="0.6" x="6" y="17" width="20" height="17" fill="#D8F4F7"/>
<path d="M9.6 9.60052H2.4C1.76348 9.60052 1.15303 9.85338 0.702944 10.3035C0.252856 10.7536 0 11.364 0 12.0005V26.4005C0 27.037 0.252856 27.6475 0.702944 28.0976C1.15303 28.5477 1.76348 28.8005 2.4 28.8005H9.6C10.2365 28.8005 10.847 28.5477 11.2971 28.0976C11.7471 27.6475 12 27.037 12 26.4005V12.0005C12 11.364 11.7471 10.7536 11.2971 10.3035C10.847 9.85338 10.2365 9.60052 9.6 9.60052ZM4.8 25.2005H2.4V22.8005H4.8V25.2005ZM9.6 25.2005H7.2V22.8005H9.6V25.2005ZM6 20.4005C5.28799 20.4005 4.59196 20.1894 3.99995 19.7938C3.40793 19.3982 2.94651 18.836 2.67403 18.1782C2.40156 17.5204 2.33027 16.7965 2.46917 16.0982C2.60808 15.3999 2.95095 14.7584 3.45442 14.2549C3.95788 13.7515 4.59934 13.4086 5.29768 13.2697C5.99601 13.1308 6.71985 13.2021 7.37766 13.4746C8.03547 13.747 8.59772 14.2085 8.99329 14.8005C9.38886 15.3925 9.6 16.0885 9.6 16.8005C9.59893 17.755 9.2193 18.67 8.5444 19.3449C7.8695 20.0198 6.95445 20.3995 6 20.4005Z" fill="#3BC9D7"/>
<path d="M6.0001 19.2006C7.32558 19.2006 8.4001 18.1261 8.4001 16.8006C8.4001 15.4752 7.32558 14.4006 6.0001 14.4006C4.67461 14.4006 3.6001 15.4752 3.6001 16.8006C3.6001 18.1261 4.67461 19.2006 6.0001 19.2006Z" fill="#3BC9D7"/>
<path d="M3.45544 5.85504L5.15269 7.55199C5.37773 7.32703 5.6829 7.20065 6.00109 7.20065C6.31929 7.20065 6.62446 7.32703 6.84949 7.55199L8.54674 5.85474C8.21245 5.52043 7.81558 5.25524 7.3788 5.07431C6.94201 4.89339 6.47387 4.80026 6.00109 4.80026C5.52832 4.80026 5.06018 4.89339 4.62339 5.07431C4.18661 5.25524 3.78974 5.52043 3.45544 5.85474V5.85504Z" fill="#3BC9D7"/>
<path d="M5.99896 2.40061C6.78722 2.39848 7.56809 2.5527 8.29635 2.85436C9.02462 3.15602 9.68583 3.59911 10.2417 4.15801L11.939 2.46061C11.1589 1.6805 10.2329 1.06169 9.2137 0.639494C8.19451 0.217301 7.10213 0 5.99896 0C4.89578 0 3.80341 0.217301 2.78422 0.639494C1.76503 1.06169 0.838983 1.6805 0.05896 2.46061L1.75636 4.15801C2.31221 3.5991 2.97338 3.156 3.70163 2.85434C4.42987 2.55268 5.21071 2.39846 5.99896 2.40061Z" fill="#3BC9D7"/>
</svg>
