<svg width="30" height="22" viewBox="0 0 30 22" fill="none" xmlns="http://www.w3.org/2000/svg">
<rect opacity="0.6" x="10" y="5" width="20" height="17" fill="#D8F4F7"/>
<path d="M18.3 0H0.9C0.402937 0 0 0.402938 0 0.9C0 1.39706 0.402937 1.8 0.9 1.8H18.3C18.7971 1.8 19.2 1.39706 19.2 0.9C19.2 0.402938 18.7971 0 18.3 0Z" fill="#3BC9D7"/>
<path d="M18.3 13.2001H0.9C0.402937 13.2001 0 13.603 0 14.1001C0 14.5971 0.402937 15.0001 0.9 15.0001H18.3C18.7971 15.0001 19.2 14.5971 19.2 14.1001C19.2 13.603 18.7971 13.2001 18.3 13.2001Z" fill="#3BC9D7"/>
<path d="M11.1002 3.63754C10.6031 3.63754 10.2002 4.04048 10.2002 4.53754V10.5375C10.2002 11.0346 10.6031 11.4375 11.1002 11.4375C11.5973 11.4375 12.0002 11.0346 12.0002 10.5375V9.41033L13.7638 11.1739C13.9395 11.3497 14.1699 11.4375 14.4002 11.4375C14.6305 11.4375 14.8608 11.3497 15.0366 11.174C15.3881 10.8225 15.3881 10.2527 15.0366 9.90117L13.0973 7.96182C12.9839 7.84853 12.9215 7.69782 12.9215 7.53758C12.9215 7.37734 12.9839 7.22663 13.0973 7.11334L15.0366 5.17399C15.3881 4.82251 15.3881 4.25269 15.0366 3.90121C14.6851 3.54972 14.1153 3.54972 13.7638 3.90121L12.0002 5.66476V4.53754C12.0002 4.04048 11.5973 3.63754 11.1002 3.63754Z" fill="#3BC9D7"/>
<path d="M5.39951 3.63754C4.90245 3.63754 4.49951 4.04048 4.49951 4.53754V7.53754C4.49951 8.03461 4.90245 8.43754 5.39951 8.43754H7.19951V10.5375C7.19951 11.0346 7.60245 11.4375 8.09951 11.4375C8.59657 11.4375 8.99951 11.0346 8.99951 10.5375V4.53754C8.99951 4.04048 8.59657 3.63754 8.09951 3.63754C7.60245 3.63754 7.19951 4.04048 7.19951 4.53754V6.63754H6.29951V4.53754C6.29951 4.04048 5.89657 3.63754 5.39951 3.63754Z" fill="#3BC9D7"/>
</svg>
