<svg width="30" height="28" viewBox="0 0 30 28" fill="none" xmlns="http://www.w3.org/2000/svg">
<rect opacity="0.6" x="10" y="11" width="20" height="17" fill="#D8F4F7"/>
<path d="M10.4634 9.23029C9.09792 9.23029 8.07581 10.4521 8.07581 11.7737C8.07581 13.159 9.14694 14.2352 10.4634 14.2352C11.7782 14.2352 12.9248 13.0788 12.9248 11.6917C12.9247 10.3725 11.8312 9.23029 10.4634 9.23029Z" fill="#3BC9D7"/>
<path d="M19.4616 13.3346C18.7706 12.9358 16.3102 11.9215 14.1153 11.3015C14.1292 11.4314 14.1547 11.5581 14.1547 11.6916C14.1547 13.1944 13.2493 14.567 11.9581 15.1427C12.415 15.5876 12.9046 16.0339 13.3999 16.4588C12.1113 17.2594 10.5755 17.5146 9.1243 17.1291C8.79679 17.045 8.45964 17.2379 8.37193 17.5666C8.28479 17.8947 8.48069 18.2318 8.80938 18.319C10.7069 18.8218 12.6665 18.4793 14.3702 17.2663C14.7318 17.5572 15.0767 17.8273 15.3792 18.0526C13.0003 19.8968 9.72692 20.2863 7.01927 18.9607C6.714 18.8099 6.34563 18.9373 6.19601 19.242C6.04639 19.5472 6.17197 19.9156 6.47724 20.0652C9.69857 21.6454 13.5828 21.2441 16.4604 18.7768C18.0013 19.6116 19.7916 19.0001 20.5884 17.6195C21.4362 16.1503 20.9309 14.1831 19.4616 13.3346Z" fill="#3BC9D7"/>
<path d="M19.6726 11.0607C19.4246 7.39339 16.9737 4.23003 13.5335 3.01083C13.4973 1.34548 12.2111 0 10.5373 0C8.84082 0 7.46051 1.38031 7.46051 3.07676C7.46051 3.8729 7.80915 6.50945 8.36603 8.72028C8.97702 8.27253 9.64951 7.99954 10.4634 7.99954C11.2782 7.99954 12.0251 8.27314 12.6365 8.7218C12.7937 8.0985 12.936 7.44537 13.0564 6.80373C14.3973 7.51724 15.4042 8.75568 15.8081 10.2374C15.8992 10.5726 16.2453 10.7578 16.5634 10.6694C16.8916 10.5799 17.085 10.2422 16.9955 9.91408C16.4667 7.97296 15.0886 6.37854 13.2709 5.54498C13.3414 5.08919 13.3999 4.66252 13.4435 4.28997C16.2553 5.42523 18.2374 8.08077 18.4443 11.1436C18.4665 11.4687 18.737 11.7175 19.0578 11.7175C19.0717 11.7175 19.0861 11.7169 19.0999 11.7163C19.4389 11.6934 19.6955 11.3996 19.6726 11.0607Z" fill="#3BC9D7"/>
<path d="M6.84499 11.7736C6.84499 11.6408 6.87046 11.515 6.88421 11.3857C6.2664 11.5597 5.63609 11.7551 5.01582 11.9732C4.95633 10.3189 5.57746 8.83181 6.60642 7.79395C6.8456 7.55235 6.84441 7.16297 6.60281 6.9238C6.36244 6.68581 5.97303 6.68581 5.73266 6.92741C4.37931 8.29233 3.61652 10.2357 3.82259 12.4129C3.38394 12.5832 2.97451 12.7484 2.62501 12.8995C2.17837 9.72662 3.61594 6.7078 6.07215 5.05249C6.35399 4.86259 6.42854 4.48043 6.23863 4.19859C6.04753 3.91613 5.66534 3.8422 5.38472 4.03211C2.4735 5.99379 0.767413 9.62906 1.47728 13.4637C0.0507781 14.3362 -0.42278 16.1721 0.411434 17.6195C0.417424 17.6303 0.42407 17.6405 0.43006 17.6513C1.28122 19.0854 3.12236 19.5767 4.57225 18.7697C4.58669 18.7619 4.60048 18.7534 4.61492 18.7456C4.61492 18.7456 4.61553 18.745 4.61611 18.745C5.3071 18.3455 7.40675 16.7283 9.039 15.1413C7.74915 14.5651 6.84499 13.2753 6.84499 11.7736Z" fill="#3BC9D7"/>
</svg>
