<svg width="68" height="67" viewBox="0 0 68 67" fill="none" xmlns="http://www.w3.org/2000/svg">
<rect opacity="0.2" x="27" y="33" width="41" height="34" fill="#3BC9D7"/>
<path d="M50.2346 22.3912C49.6222 19.3122 48.398 16.3773 46.6339 13.7644C47.7433 11.9386 47.5935 9.55979 46.0169 7.98325C44.4402 6.4067 42.0614 6.25672 40.2357 7.36625C37.6228 5.60208 34.6879 4.3779 31.6089 3.76555C31.115 1.67242 29.2419 0 27 0C24.7581 0 22.885 1.67242 22.3912 3.76545C19.3122 4.3778 16.3775 5.60197 13.7646 7.36615C11.9389 6.25672 9.55979 6.40649 7.98325 7.98314C6.4067 9.55979 6.25672 11.9386 7.36625 13.7643C5.60208 16.3772 4.3779 19.3121 3.76555 22.3911C1.67242 22.885 0 24.7581 0 27C0 29.2419 1.67242 31.115 3.76545 31.6088C4.3778 34.6878 5.60197 37.6225 7.36615 40.2354C6.25672 42.0611 6.40649 44.4402 7.98314 46.0168C9.55958 47.5932 11.9392 47.7421 13.7643 46.6335C16.3772 48.3977 19.3121 49.6221 22.3911 50.2344C22.885 52.3276 24.7581 54 27 54C29.2419 54 31.115 52.3276 31.6088 50.2346C34.6878 49.6222 37.6227 48.3978 40.2356 46.6336C42.0616 47.743 44.4417 47.5919 46.0168 46.0169C47.5934 44.4402 47.7433 42.0613 46.6337 40.2355C48.3979 37.6226 49.6221 34.6879 50.2344 31.6089C52.3276 31.115 54 29.2419 54 27C54 24.7581 52.3276 22.885 50.2346 22.3912ZM39.3056 39.3056C37.9854 40.6257 37.6503 42.5268 38.2134 44.1849C36.0864 45.5749 33.7265 46.557 31.2526 47.0822C30.4813 45.5022 28.8734 44.4023 27 44.4023C25.1266 44.4023 23.5187 45.5022 22.7473 47.0823C20.2734 46.5571 17.9136 45.5751 15.7865 44.185C16.3496 42.5269 16.0145 40.6258 14.6943 39.3057C13.3742 37.9855 11.4731 37.6504 9.81503 38.2135C8.42495 36.0866 7.44293 33.7266 6.9177 31.2527C8.49783 30.4813 9.59766 28.8734 9.59766 27C9.59766 25.1266 8.49783 23.5187 6.9177 22.7473C7.44293 20.2732 8.42495 17.9135 9.81524 15.7864C11.4739 16.3491 13.3755 16.0132 14.6944 14.6944C16.0146 13.3743 16.3497 11.4732 15.7866 9.81513C17.9135 8.42505 20.2735 7.44304 22.7474 6.9178C23.5187 8.49783 25.1266 9.59766 27 9.59766C28.8734 9.59766 30.4813 8.49783 31.2527 6.9177C33.7266 7.44293 36.0865 8.42495 38.2135 9.81503C37.6504 11.4731 37.9855 13.3742 39.3057 14.6943C40.6254 16.0141 42.5269 16.3482 44.1847 15.7858C45.5749 17.913 46.5572 20.2731 47.0824 22.7472C45.5022 23.5187 44.4023 25.1266 44.4023 27C44.4023 28.8734 45.5022 30.4813 47.0823 31.2527C46.5571 33.7266 45.5751 36.0865 44.185 38.2135C42.5268 37.6503 40.6257 37.9854 39.3056 39.3056Z" fill="#3BC9D7"/>
<path d="M26.9997 38.0742C27.5594 38.0742 28.6096 36.6131 29.3465 33.8555H24.653C25.3899 36.6131 26.4401 38.0742 26.9997 38.0742Z" fill="#3BC9D7"/>
<path d="M30.1641 27C30.1641 25.6358 30.065 24.4308 29.9277 23.3086H24.0723C23.935 24.4308 23.8359 25.6358 23.8359 27C23.8359 28.3642 23.935 29.5692 24.0723 30.6914H29.9277C30.065 29.5692 30.1641 28.3642 30.1641 27Z" fill="#3BC9D7"/>
<path d="M32.5797 20.1445H39.4011C36.9698 15.7661 32.3534 12.7617 27 12.7617C29.7603 12.7617 31.6249 15.9466 32.5797 20.1445Z" fill="#3BC9D7"/>
<path d="M27.0004 12.7617C21.6469 12.7617 17.0306 15.7661 14.5993 20.1445H21.4207C22.3754 15.9466 24.2399 12.7617 27.0004 12.7617Z" fill="#3BC9D7"/>
<path d="M21.4207 33.8555H14.5993C17.0306 38.2339 21.647 41.2383 27.0004 41.2383C24.24 41.2383 22.3755 38.0534 21.4207 33.8555Z" fill="#3BC9D7"/>
<path d="M33.1023 23.3086C33.236 24.52 33.3277 25.7544 33.3277 27C33.3277 28.2456 33.236 29.48 33.1023 30.6914H40.6913C41.0117 29.5066 41.2379 28.2846 41.2379 27C41.2379 25.7154 41.0117 24.4934 40.6913 23.3086H33.1023Z" fill="#3BC9D7"/>
<path d="M27 41.2383C32.3535 41.2383 36.9698 38.2339 39.4011 33.8555H32.5797C31.625 38.0534 29.7604 41.2383 27 41.2383Z" fill="#3BC9D7"/>
<path d="M26.9997 15.9258C26.4401 15.9258 25.3899 17.3869 24.653 20.1445H29.3465C28.6096 17.3869 27.5594 15.9258 26.9997 15.9258Z" fill="#3BC9D7"/>
<path d="M20.6719 27C20.6719 25.7544 20.7636 24.52 20.8973 23.3086H13.3083C12.9878 24.4934 12.7617 25.7154 12.7617 27C12.7617 28.2846 12.9878 29.5066 13.3083 30.6914H20.8973C20.7636 29.48 20.6719 28.2456 20.6719 27Z" fill="#3BC9D7"/>
</svg>
