<svg width="17" height="17" viewBox="0 0 17 17" fill="none" xmlns="http://www.w3.org/2000/svg">
<path d="M12.25 1H4.75C2.67893 1 1 2.67893 1 4.75V12.25C1 14.3211 2.67893 16 4.75 16H12.25C14.3211 16 16 14.3211 16 12.25V4.75C16 2.67893 14.3211 1 12.25 1Z" stroke="black" stroke-width="1.5" stroke-linecap="round" stroke-linejoin="round"/>
<path d="M11.5 8.02724C11.5925 8.65142 11.4859 9.2889 11.1953 9.849C10.9047 10.4091 10.4448 10.8633 9.88118 11.147C9.31754 11.4307 8.6788 11.5294 8.0558 11.4292C7.43281 11.3289 6.85728 11.0348 6.41109 10.5886C5.9649 10.1424 5.67076 9.56689 5.57051 8.9439C5.47027 8.3209 5.56901 7.68216 5.85271 7.11852C6.1364 6.55488 6.5906 6.09504 7.1507 5.80442C7.7108 5.51379 8.34828 5.40718 8.97246 5.49974C9.60916 5.59415 10.1986 5.89084 10.6537 6.34597C11.1089 6.8011 11.4056 7.39055 11.5 8.02724Z" stroke="black" stroke-width="1.5" stroke-linecap="round" stroke-linejoin="round"/>
<path d="M12.625 4.375H12.6325" stroke="black" stroke-width="1.5" stroke-linecap="round" stroke-linejoin="round"/>
</svg>
