<svg width="15" height="13" viewBox="0 0 15 13" fill="none" xmlns="http://www.w3.org/2000/svg">
<path d="M15 0.00685616C14.3471 0.467409 13.6242 0.819658 12.8591 1.05004C12.4485 0.577886 11.9027 0.243237 11.2957 0.0913513C10.6887 -0.0605345 10.0497 -0.0223286 9.46506 0.200802C8.88045 0.423932 8.37848 0.821221 8.02703 1.33894C7.67558 1.85665 7.49161 2.46981 7.5 3.09549V3.77731C6.3018 3.80838 5.11451 3.54264 4.04387 3.00375C2.97323 2.46486 2.05249 1.66956 1.36364 0.688674C1.36364 0.688674 -1.36364 6.82504 4.77273 9.55231C3.36854 10.5055 1.69579 10.9834 0 10.9159C6.13636 14.325 13.6364 10.9159 13.6364 3.07504C13.6357 2.88512 13.6175 2.69567 13.5818 2.50913C14.2777 1.82287 14.7687 0.956433 15 0.00685616Z" fill="black"/>
</svg>
