<svg width="70" height="59" viewBox="0 0 70 59" fill="none" xmlns="http://www.w3.org/2000/svg">
<rect opacity="0.2" x="28.25" y="25" width="41" height="34" fill="#3BC9D7"/>
<path d="M43.3614 6.85217H38.2223L35.3851 2.56956C34.3144 0.963587 32.4408 0 30.5136 0H18.7364C16.8092 0 14.9356 0.963587 13.8649 2.56956L11.0277 6.85217H5.88859C2.6231 6.85217 0 9.47527 0 12.7408V33.5114C0 36.7769 2.6231 39.4 5.88859 39.4H43.3614C46.6269 39.4 49.25 36.7769 49.25 33.5114V12.7408C49.25 9.47527 46.6269 6.85217 43.3614 6.85217ZM24.625 34.5821C17.291 34.5821 11.3489 28.6399 11.3489 21.306C11.3489 13.972 17.291 8.08342 24.625 8.08342C31.959 8.08342 37.9011 14.0255 37.9011 21.3595C37.9011 28.6399 31.959 34.5821 24.625 34.5821ZM42.612 15.1497C42.5584 15.1497 42.5049 15.1497 42.3978 15.1497H40.2565C39.2929 15.0962 38.5435 14.2932 38.597 13.3296C38.6505 12.4196 39.3465 11.7236 40.2565 11.6701H42.3978C43.3614 11.6166 44.1644 12.366 44.2179 13.3296C44.2715 14.2932 43.5755 15.0962 42.612 15.1497Z" fill="#3BC9D7"/>
<path d="M24.6258 13.9718C20.5573 13.9718 17.2383 17.2908 17.2383 21.3593C17.2383 25.4278 20.5573 28.6933 24.6258 28.6933C28.6943 28.6933 32.0133 25.3742 32.0133 21.3058C32.0133 17.2373 28.6943 13.9718 24.6258 13.9718Z" fill="#3BC9D7"/>
</svg>
