<svg width="54" height="63" viewBox="0 0 54 63" fill="none" xmlns="http://www.w3.org/2000/svg">
<rect opacity="0.2" x="13" y="29" width="41" height="34" fill="#3BC9D7"/>
<path d="M20.0487 2.65386H16.5184V0H7.29949V2.65386H3.95099C1.77204 2.65386 0 4.43963 0 6.63469V42.0194C0 44.2139 1.77252 46 3.95099 46H20.0487C22.2284 46 24 44.2139 24 42.0194V6.63459C24 4.43963 22.2284 2.65386 20.0487 2.65386ZM21.3663 42.0197C21.3663 42.7509 20.7753 43.3462 20.0487 43.3462H3.95099C3.22444 43.3462 2.63347 42.752 2.63347 42.0197V6.63459C2.63347 5.9033 3.22444 5.30761 3.95099 5.30761H20.0487C20.7753 5.30761 21.3663 5.9032 21.3663 6.63459V42.0197ZM19.93 41.7757H4.06992V35.9535H19.9296V41.7757H19.93ZM19.93 34.5194H4.06992V28.6975H19.9296V34.5194H19.93ZM19.93 27.2629H4.06992V21.4406H19.9296V27.2629H19.93ZM19.93 20.0229H4.06992V14.2007H19.9296V20.0229H19.93ZM19.93 12.7662H4.06992V6.94374H19.9296V12.7662H19.93Z" fill="#3BC9D7"/>
</svg>
