<svg width="15" height="11" viewBox="0 0 15 11" fill="none" xmlns="http://www.w3.org/2000/svg">
<path d="M14.686 1.64991C14.605 1.32635 14.4401 1.02988 14.2078 0.790463C13.9756 0.551045 13.6843 0.377152 13.3633 0.286349C12.1907 6.09561e-08 7.5 0 7.5 0C7.5 0 2.80933 2.03187e-08 1.63667 0.31362C1.31572 0.404423 1.02441 0.578316 0.792176 0.817734C0.55994 1.05715 0.394998 1.35362 0.31401 1.67719C0.0993945 2.86728 -0.00558546 4.07454 0.000389737 5.28382C-0.00726035 6.50219 0.0977263 7.71867 0.31401 8.91772C0.403296 9.23123 0.571933 9.51642 0.803628 9.74573C1.03532 9.97504 1.32224 10.1407 1.63667 10.2267C2.80933 10.5404 7.5 10.5404 7.5 10.5404C7.5 10.5404 12.1907 10.5404 13.3633 10.2267C13.6843 10.1359 13.9756 9.96205 14.2078 9.72263C14.4401 9.48321 14.605 9.18674 14.686 8.86318C14.899 7.68205 15.0039 6.48398 14.9996 5.28382C15.0073 4.06544 14.9023 2.84896 14.686 1.64991Z" fill="black"/>
<path d="M5.966 7.5133L9.88625 5.28387L5.966 3.05444V7.5133Z" fill="white"/>
</svg>
